Coordinates
version=1
nRows=19
nColumns=36
inDegrees=yes

Units are S.I. units (second, meters, Newtons, ...)
If the header above contains a line with 'inDegrees', this indicates whether rotational values are in degrees (yes) or radians (no).

endheader
time	pelvis_tilt	pelvis_list	pelvis_rotation	pelvis_tx	pelvis_ty	pelvis_tz	hip_flexion_r	hip_adduction_r	hip_rotation_r	knee_angle_r	knee_angle_r_beta	ankle_angle_r	subtalar_angle_r	mtp_angle_r	hip_flexion_l	hip_adduction_l	hip_rotation_l	knee_angle_l	knee_angle_l_beta	ankle_angle_l	subtalar_angle_l	mtp_angle_l	lumbar_extension	lumbar_bending	lumbar_rotation	arm_flex_r	arm_add_r	arm_rot_r	elbow_flex_r	pro_sup_r	arm_flex_l	arm_add_l	arm_rot_l	elbow_flex_l	pro_sup_l
      1.70000000	      2.77392546	      0.51256304	      3.01574316	      0.32110426	      0.95040218	     -0.11216216	     -7.76579620	     -2.97503689	     -5.76137848	      0.63920697	      0.01115627	      0.01042454	    -16.18322312	     -7.49999987	     -6.76823120	      0.13036285	     10.88094731	      2.08976428	      0.03647327	     -2.01068790	    -17.50240809	     -7.49999987	     -6.63983861	     -0.80854848	      1.98987294	      0.64065101	     -2.05403365	    -83.48968100	     93.82406881	     34.87219748	      7.07237867	     -3.84986782	    -49.21748576	     92.04745001	     49.39398443
      1.71666670	      2.79173859	      0.55367462	      3.02892690	      0.32120305	      0.95061422	     -0.11237242	     -7.79094788	     -3.02670502	     -5.81605849	      0.64014745	      0.01117268	      0.19864727	    -15.92308367	     -7.49999987	     -6.76950517	      0.15050407	     10.68306189	      2.14502760	      0.03743779	     -1.70991994	    -16.83485281	     -7.49999987	     -6.72589395	     -0.84384605	      2.11805592	      0.40022326	     -2.05559909	    -83.49976124	     94.32967741	     29.56184137	      7.01341097	     -3.75681483	    -48.99502324	     92.49081143	     46.53482379
      1.73333330	      2.74451874	      0.59275297	      3.04560480	      0.32120759	      0.95045633	     -0.11220705	     -7.72317151	     -3.09587889	     -5.78456548	      0.63973047	      0.01116540	      0.14955874	    -16.12288512	     -7.49999987	     -6.71169441	      0.17898777	     10.70192965	      2.16264542	      0.03774528	     -1.67056856	    -16.70071679	     -7.49999987	     -6.65527421	     -0.88895051	      2.18632763	      0.31561682	     -2.07020325	    -83.69809156	     94.38016108	     29.79749756	      6.98215871	     -3.71350916	    -49.01648831	     92.67377472	     46.42648093
      1.75000000	      2.69350820	      0.62444235	      3.06576766	      0.32130623	      0.95057767	     -0.11243971	     -7.64874664	     -3.16813768	     -5.92430152	      0.63597183	      0.01109980	      0.28801013	    -15.90276295	     -7.49999987	     -6.64724032	      0.21003856	     10.80439102	      2.17475832	      0.03795669	     -1.71204386	    -16.75260774	     -7.49999987	     -6.57956375	     -0.92097466	      2.20567667	      0.28182481	     -2.08233574	    -83.89141138	     94.38183985	     29.63067599	      6.90554863	     -3.68614748	    -49.03771956	     92.85783628	     45.98098480
      1.76666670	      2.65199017	      0.65566096	      3.05436624	      0.32133271	      0.95049558	     -0.11219426	     -7.59032253	     -3.22053171	     -5.86453728	      0.64370780	      0.01123482	      0.26686821	    -16.06157373	     -7.49999987	     -6.60911646	      0.23366463	     10.81141949	      2.16221426	      0.03773776	     -1.66399387	    -16.62591267	     -7.49999987	     -6.51623645	     -0.96549045	      2.20105047	      0.17355873	     -2.07112392	    -84.11335129	     94.35360621	     29.44390967	      6.83354952	     -3.69967385	    -49.17613575	     92.96675472	     46.00183540
      1.78333330	      2.63143999	      0.68509426	      3.07495075	      0.32139507	      0.95065913	     -0.11245369	     -7.55659008	     -3.26670400	     -5.91331544	      0.64988205	      0.01134258	      0.25184007	    -16.16070284	     -7.49999987	     -6.58147588	      0.26505705	     10.86168553	      2.18311133	      0.03810248	     -1.64894245	    -16.59084610	     -7.49999987	     -6.47810502	     -0.98848853	      2.18675093	      0.04258551	     -2.06154658	    -84.31777292	     94.33396229	     29.15330063	      6.77410551	     -3.69249726	    -49.27514040	     93.03432954	     45.88495280
      1.80000000	      2.61944462	      0.69725554	      3.05678240	      0.32135404	      0.95364269	     -0.11245275	     -7.52519979	     -3.30351403	     -5.99693235	      0.64450232	      0.01124869	      0.24215685	    -16.12603294	     -7.49999987	     -6.57925398	      0.27345039	     10.88113079	      2.16313430	      0.03775382	     -1.71005283	    -16.53075649	     -7.49999987	     -6.46657642	     -0.98643271	      2.17584461	     -0.08245216	     -1.90792384	    -84.56424076	     94.34164094	     28.91041499	      6.74603562	     -3.64583654	    -49.40820717	     92.94032424	     45.69777409
      1.81666670	      2.56931654	      0.72927757	      3.05890759	      0.32135414	      0.95045873	     -0.11242123	     -7.46122538	     -3.38251579	     -6.09759269	      0.64406218	      0.01124101	      0.19369162	    -16.28539379	     -7.49999987	     -6.51885394	      0.31403800	     10.85346088	      2.17325461	      0.03793045	     -1.65732034	    -16.44342029	     -7.49999987	     -6.37426896	     -1.01960693	      2.23882540	     -0.22000694	     -2.04260042	    -84.90193750	     94.21526830	     28.76828090	      6.83218000	     -3.74141795	    -49.41633488	     92.84315012	     45.59479197
      1.83333330	      2.53569722	      0.72832576	      3.03471376	      0.32131813	      0.95026052	     -0.11217979	     -7.40675362	     -3.41150221	     -6.20777886	      0.64227861	      0.01120988	      0.16725045	    -16.37814675	     -7.49999987	     -6.48974477	      0.32562341	     10.85026837	      2.16091741	      0.03771512	     -1.56333631	    -16.34269182	     -7.49999987	     -6.32207182	     -1.01984077	      2.24119527	     -0.34160625	     -2.05059288	    -85.27281098	     94.20186369	     28.77651542	      7.00460684	     -3.90517146	    -49.47659559	     92.64015102	     45.48124642
      1.85000000	      2.48163190	      0.71821253	      3.07426897	      0.32142960	      0.95031855	     -0.11239364	     -7.35540153	     -3.42532106	     -6.38978629	      0.63857327	      0.01114521	      0.21149092	    -16.36622918	     -7.49999987	     -6.43036658	      0.32301150	     10.89291649	      2.15411441	      0.03759639	     -1.49521442	    -16.37669597	     -7.49999987	     -6.22518735	     -1.01372861	      2.21875187	     -0.45364806	     -2.02589470	    -85.58595012	     94.21875123	     28.46248068	      7.16929008	     -4.02320368	    -49.58299442	     92.32966345	     45.51460434
      1.86666670	      2.41589493	      0.71125900	      3.04173397	      0.32140311	      0.95008853	     -0.11209143	     -7.27713799	     -3.43819622	     -6.33488635	      0.63550515	      0.01109166	      0.09548912	    -16.69188407	     -7.49999987	     -6.37018469	      0.32608304	     10.79711438	      2.13957416	      0.03734261	     -1.32114551	    -16.14847116	     -7.49999987	     -6.12792146	     -1.01994873	      2.33760082	     -0.60056192	     -2.00961055	    -85.92522577	     94.27439886	     28.57080989	      7.33103819	     -4.15933237	    -49.75503975	     92.15098742	     45.30373441
      1.88333330	      2.36967511	      0.71925387	      3.10945906	      0.32149204	      0.95021340	     -0.11238942	     -7.24147900	     -3.45129778	     -6.61421941	      0.63701514	      0.01111801	      0.20715187	    -16.49728582	     -7.49999987	     -6.30215948	      0.33309062	     10.92089520	      2.16782832	      0.03783574	     -1.37616058	    -16.28516205	     -7.49999987	     -6.02557941	     -1.02838020	      2.28514293	     -0.68391901	     -1.97680169	    -86.12996117	     94.30478109	     28.39236085	      7.38082635	     -4.34839110	    -49.91735015	     91.97443320	     45.11237034
      1.90000000	      2.30724047	      0.71601167	      3.10632889	      0.32146150	      0.95011860	     -0.11208939	     -7.15418907	     -3.45253114	     -6.52394832	      0.63518993	      0.01108616	      0.15353514	    -16.70134685	     -7.49999987	     -6.23586936	      0.32890821	     10.87457994	      2.17972019	      0.03804329	     -1.30622970	    -16.15108941	     -7.49999987	     -5.92232792	     -1.02351161	      2.38401818	     -0.79279544	     -1.95568027	    -86.35242526	     94.37865000	     28.37333241	      7.36117185	     -4.42527000	    -49.94140636	     91.91935533	     44.82826826
      1.91666670	      2.32758534	      0.68988597	      3.14244280	      0.32146576	      0.95030519	     -0.11234466	     -7.17683877	     -3.41514019	     -6.48749928	      0.62826381	      0.01096527	      0.10077214	    -16.82931766	     -7.49999987	     -6.25346691	      0.29010677	     11.04900078	      2.17016565	      0.03787654	     -1.47052650	    -16.48004685	     -7.49999987	     -5.81404225	     -0.99964374	      2.29779834	     -0.75520734	     -1.88111709	    -86.68655656	     94.02515569	     35.05110572	      7.39345197	     -4.42758999	    -50.31844414	     91.62994707	     48.92302132
      1.93333330	      2.26783829	      0.68933709	      3.19255986	      0.32155049	      0.95029250	     -0.11213371	     -7.13573331	     -3.39178291	     -6.55044045	      0.63846543	      0.01114332	      0.15796878	    -16.58993268	     -7.49999987	     -6.16498464	      0.27563168	     10.97745358	      2.23143779	      0.03894594	     -1.31711333	    -16.12876541	     -7.49999987	     -5.80343985	     -0.98371167	      2.40686356	     -1.03341178	     -1.74109502	    -86.86314688	     94.68726943	     28.14831313	      7.25844498	     -4.53139801	    -49.91981239	     91.89559096	     44.51480254
      1.95000000	      2.28536498	      0.68242714	      3.20075325	      0.32163697	      0.95054957	     -0.11240418	     -7.17164565	     -3.36469033	     -6.44619584	      0.66400569	      0.01158909	     -0.01813213	    -16.87230879	     -7.49999987	     -6.16823309	      0.26221074	     10.96959444	      2.26710236	      0.03956840	     -1.34024343	    -16.08774821	     -7.49999987	     -5.80036112	     -0.95829935	      2.42306567	     -1.12048516	     -1.68791642	    -87.03581022	     94.78464012	     28.22706997	      7.22730407	     -4.51524335	    -49.96196261	     91.95194590	     44.45740609
      1.96666670	      2.25658033	      0.65473128	      3.25956129	      0.32156193	      0.95040582	     -0.11214131	     -7.19279517	     -3.29451005	     -6.49107322	      0.67057232	      0.01170369	     -0.19549174	    -17.07299934	     -7.49999987	     -6.12547289	      0.20796955	     11.09118782	      2.33333394	      0.04072436	     -1.63201939	    -16.54077429	     -7.49999987	     -5.67886713	     -0.94373244	      2.39792395	     -1.22931103	     -1.43145519	    -87.60557484	     94.89780222	     30.27790186	      7.21727380	     -4.61467796	    -49.98503283	     91.79745011	     45.75909292
      1.98333330	      2.27343617	      0.65023986	      3.23825085	      0.32167826	      0.95064739	     -0.11234525	     -7.25946330	     -3.27724140	     -6.54248627	      0.68783457	      0.01200498	     -0.27786008	    -17.09052446	     -7.49999987	     -6.13932481	      0.17641089	     10.88486733	      2.40361215	      0.04195095	     -1.56374410	    -16.34769313	     -7.49999987	     -5.67500074	     -0.95757548	      2.58077702	     -1.50211424	     -1.18875297	    -87.99763293	     95.27714581	     28.13903152	      7.25363089	     -4.54786084	    -49.73360541	     91.87757844	     44.53415937
      2.00000000	      2.26461305	      0.65550930	      3.26954928	      0.32171217	      0.95061445	     -0.11214176	     -7.30730189	     -3.26279708	     -6.78566193	      0.72613550	      0.01267346	     -0.25664281	    -17.10237212	     -7.49999987	     -6.11503308	      0.17191609	     10.90329969	      2.46429086	      0.04300999	     -1.69432647	    -16.68151193	     -7.49999987	     -5.60969577	     -0.93493830	      2.51829803	     -1.56939256	     -0.93929077	    -88.35578420	     95.65024557	     27.95310151	      7.08023662	     -4.42042912	    -49.81823711	     92.08436305	     44.46783932
